<?xml version="1.0" encoding="UTF-8" standalone="no"?>
<!-- Created with Inkscape (http://www.inkscape.org/) -->

<svg
   width="128"
   height="128"
   viewBox="0 0 128 128"
   version="1.1"
   id="svg1"
   sodipodi:docname="king.svg"
   inkscape:version="1.4.2 (ebf0e940d0, 2025-05-08)"
   xmlns:inkscape="http://www.inkscape.org/namespaces/inkscape"
   xmlns:sodipodi="http://sodipodi.sourceforge.net/DTD/sodipodi-0.dtd"
   xmlns="http://www.w3.org/2000/svg"
   xmlns:svg="http://www.w3.org/2000/svg">
  <sodipodi:namedview
     id="namedview1"
     pagecolor="#505050"
     bordercolor="#eeeeee"
     borderopacity="1"
     inkscape:showpageshadow="0"
     inkscape:pageopacity="0"
     inkscape:pagecheckerboard="0"
     inkscape:deskcolor="#505050"
     inkscape:zoom="4.0000001"
     inkscape:cx="52.749999"
     inkscape:cy="71.499998"
     inkscape:window-width="1920"
     inkscape:window-height="1014"
     inkscape:window-x="0"
     inkscape:window-y="0"
     inkscape:window-maximized="1"
     inkscape:current-layer="svg1" />
  <defs
     id="defs1" />
  <path
     style="font-variation-settings:'opsz' 32, 'wght' 100;fill:none;stroke:#ffffff;stroke-width:5;stroke-linecap:round;stroke-linejoin:miter;stroke-dasharray:none;paint-order:markers fill stroke"
     d="m 16,110.50466 h 96"
     id="path20"
     inkscape:label="body" />
  <path
     style="font-variation-settings:'opsz' 32, 'wght' 100;fill:none;stroke:#ffffff;stroke-width:5;stroke-linecap:round;stroke-linejoin:miter;stroke-dasharray:none;paint-order:markers fill stroke"
     d="M 32,101.08683 H 96"
     id="path19"
     inkscape:label="neck" />
  <path
     d="m 47.839844,27.025391 a 16.160156,16.160152 0 0 0 -11.427735,4.734375 16.160156,16.160152 0 0 0 -4.732422,11.425781 v 16.158203 0.0039 A 32.321243,32.321243 0 0 0 64,91.669922 32.321243,32.321243 0 0 0 96.320312,59.347656 v -0.0039 -16.154297 a 16.160156,16.160152 0 0 0 0,-0.0039 A 16.160156,16.160152 0 0 0 91.587891,31.759766 16.160156,16.160152 0 0 0 80.160156,27.025391 16.160156,16.160152 0 0 0 68.732422,31.759766 16.160156,16.160152 0 0 0 64,43.185547 16.160156,16.160152 0 0 0 59.267578,31.759766 16.160156,16.160152 0 0 0 47.839844,27.025391 Z M 43.25,46.375 h 41.5 c 2.731812,0 5,2.268188 5,5 0,2.731812 -2.268188,5 -5,5 h -41.5 c -2.731812,0 -5,-2.268188 -5,-5 0,-2.731812 2.268188,-5 5,-5 z"
     style="font-variation-settings:'opsz' 32, 'wght' 100;fill:#ffffff;stroke:#ffffff;stroke-width:5;stroke-linecap:round;stroke-linejoin:round;paint-order:markers fill stroke"
     id="path5"
     inkscape:label="head" />
  <path
     style="font-variation-settings:'opsz' 32, 'wght' 100;fill:none;stroke:#ffffff;stroke-width:5;stroke-linecap:round;stroke-linejoin:round;stroke-dasharray:none;paint-order:markers fill stroke"
     d="M 64,35.277344 V 23.005204"
     id="path6"
     sodipodi:nodetypes="cc"
     inkscape:label="antenae-line" />
  <circle
     style="font-variation-settings:'opsz' 32, 'wght' 100;fill:none;stroke:#ffffff;stroke-width:5;stroke-linecap:round;stroke-linejoin:round;stroke-dasharray:none;paint-order:markers fill stroke;stroke-opacity:1"
     id="path7"
     cx="64"
     cy="13.448985"
     r="6.8125"
     inkscape:label="antenae" />
</svg>
